<?xml version="1.0" encoding="utf-8"?>
<svg viewBox="246.06 116.935 125.059 125.058" xmlns="http://www.w3.org/2000/svg">
  <defs>
    <clipPath id="clippath5" transform="">
      <path d="M 0 1521.295 L 590 1521.295 L 590 0 L 0 0 Z" style="fill: none; clip-rule: nonzero;"/>
    </clipPath>
  </defs>
  <g style="clip-path: url(#clippath5);" transform="matrix(1, 0, 0, -1, 0, 1521.290084)">
    <g transform="translate(363.7393 1371.3022)">
      <path d="M 0 0 L -9.43 0 L -19.403 0 L -64.097 0 C -64.097 0 -76.386 0.518 -80.53 -18.081 C -80.53 -18.081 -84.203 -36.091 -70.501 -36.586 L -48.465 -36.586 C -48.465 -36.586 -65.697 -32.193 -62.872 -18.286 L -10.19 -18.286 C -9.302 -21.871 -8.818 -25.616 -8.818 -29.476 C -8.818 -55.063 -29.562 -75.809 -55.149 -75.809 C -67.596 -75.809 -78.886 -70.892 -87.21 -62.907 L -107.981 -62.907 C -96.895 -80.39 -77.385 -92.005 -55.149 -92.005 C -20.616 -92.005 7.379 -64.01 7.379 -29.476 C 7.379 -18.816 4.705 -8.783 0 0" style="fill: rgb(0, 185, 242); fill-opacity: 1;"/>
    </g>
  </g>
  <g style="clip-path: url(#clippath5);" transform="matrix(1, 0, 0, -1, 0, 1521.290084)">
    <g transform="translate(308.5898 1388.1582)">
      <path d="M 0 0 C 12.223 0 23.334 -4.742 31.613 -12.477 L 52.559 -12.477 C 41.426 4.77 22.053 16.197 0 16.197 C -34.535 16.197 -62.53 -11.798 -62.53 -46.332 C -62.53 -56.823 -59.934 -66.702 -55.369 -75.384 L -36.083 -75.384 L 9.039 -75.384 C 22.224 -74.49 25.049 -58.009 25.049 -58.009 C 29.004 -40.305 15.443 -39.927 15.443 -39.927 L -7.914 -39.927 C -7.061 -46.077 -1.884 -49.734 2.063 -51.663 L 6.685 -53.442 C 10.202 -54.708 6.968 -58.009 6.968 -58.009 L -44.841 -58.009 C -45.811 -54.278 -46.333 -50.367 -46.333 -46.332 C -46.333 -20.745 -25.589 0 0 0" style="fill: rgb(30, 120, 194); fill-opacity: 1;"/>
    </g>
  </g>
</svg>